999
dxflib 3.17.0.0
  0
SECTION
  2
HEADER
  9
$ACADVER
  1
AC1015
  9
$HANDSEED
  5
FFFF
  9
$DIMADEC
 70
0
  9
$DIMASZ
 40
2.5
  9
$DIMAUNIT
 70
0
  9
$DIMAZIN
 70
2
  9
$DIMDEC
 70
4
  9
$DIMDLI
 40
5.0
  9
$DIMDSEP
 70
46
  9
$DIMEXE
 40
1.25
  9
$DIMEXO
 40
0.625
  9
$DIMGAP
 40
0.625
  9
$DIMLUNIT
 70
2
  9
$DIMSCALE
 40
1.0
  9
$DIMTSZ
 40
0.0
  9
$DIMTXT
 40
2.5
  9
$DIMZIN
 70
8
  9
$DWGCODEPAGE
  3
ANSI_1252
  9
$INSUNITS
 70
4
  9
$LTSCALE
 40
1.0
  9
$MAXACTVP
 70
64
  9
$MEASUREMENT
 70
1
  9
$PDMODE
 70
0
  9
$PDSIZE
 40
0.0
  0
ENDSEC
  0
SECTION
  2
TABLES
  0
TABLE
  2
VPORT
  5
8
100
AcDbSymbolTable
 70
1
  0
VPORT
  5
30
100
AcDbSymbolTableRecord
100
AcDbViewportTableRecord
  2
*Active
 70
0
 10
0.0
 20
0.0
 11
1.0
 21
1.0
 12
286.30555555555549
 22
148.5
 13
0.0
 23
0.0
 14
10.0
 24
10.0
 15
10.0
 25
10.0
 16
0.0
 26
0.0
 36
1.0
 17
0.0
 27
0.0
 37
0.0
 40
297.0
 41
1.92798353909465
 42
50.0
 43
0.0
 44
0.0
 50
0.0
 51
0.0
 71
0
 72
100
 73
1
 74
3
 75
1
 76
1
 77
0
 78
0
281
0
 65
1
110
0.0
120
0.0
130
0.0
111
1.0
121
0.0
131
0.0
112
0.0
122
1.0
132
0.0
 79
0
146
0.0
  0
ENDTAB
  0
TABLE
  2
LTYPE
  5
5
100
AcDbSymbolTable
 70
41
  0
LTYPE
  5
16
100
AcDbSymbolTableRecord
100
AcDbLinetypeTableRecord
  2
Continuous
 70
0
  3
Solid line
 72
65
 73
0
 40
0.0
  0
LTYPE
  5
31
100
AcDbSymbolTableRecord
100
AcDbLinetypeTableRecord
  2
ACAD_ISO10W100
 70
0
  3
ISO dash dot __ . __ . __ . __ . __ . __ . __ . 
 72
65
 73
4
 40
18.0
 49
12.0
 74
0
 49
-2.9500000000000002
 74
0
 49
0.1
 74
0
 49
-2.9500000000000002
 74
0
  0
LTYPE
  5
32
100
AcDbSymbolTableRecord
100
AcDbLinetypeTableRecord
  2
ACAD_ISO05W100
 70
0
  3
ISO long-dash double-dot ____ .. ____ .. ____ . 
 72
65
 73
6
 40
33.000000000000007
 49
24.0
 74
0
 49
-2.9500000000000002
 74
0
 49
0.1
 74
0
 49
-2.9000000000000004
 74
0
 49
0.1
 74
0
 49
-2.9500000000000002
 74
0
  0
LTYPE
  5
33
100
AcDbSymbolTableRecord
100
AcDbLinetypeTableRecord
  2
DOT
 70
0
  3
Dot . . . . . . . . . . . . . . . . . . . . . . . .
 72
65
 73
2
 40
6.3499999999999996
 49
0.1
 74
0
 49
-6.25
 74
0
  0
LTYPE
  5
34
100
AcDbSymbolTableRecord
100
AcDbLinetypeTableRecord
  2
BORDER2
 70
0
  3
Border (.5x) __.__.__.__.__.__.__.__.__.__.__.
 72
65
 73
6
 40
22.225000000000001
 49
6.3499999999999996
 74
0
 49
-3.1749999999999998
 74
0
 49
6.3499999999999996
 74
0
 49
-3.125
 74
0
 49
0.1
 74
0
 49
-3.125
 74
0
  0
LTYPE
  5
35
100
AcDbSymbolTableRecord
100
AcDbLinetypeTableRecord
  2
DASHED2
 70
0
  3
Dashed (.5x) _ _ _ _ _ _ _ _ _ _ _ _ _ _ _ _ _ 
 72
65
 73
2
 40
9.5249999999999986
 49
6.3499999999999996
 74
0
 49
-3.1749999999999998
 74
0
  0
LTYPE
  5
36
100
AcDbSymbolTableRecord
100
AcDbLinetypeTableRecord
  2
ACAD_ISO15W100
 70
0
  3
ISO double-dash triple-dot __ __ . . . __ __ . .
 72
65
 73
10
 40
39.000000000000007
 49
12.0
 74
0
 49
-3.0
 74
0
 49
12.0
 74
0
 49
-2.9500000000000002
 74
0
 49
0.1
 74
0
 49
-2.9000000000000004
 74
0
 49
0.1
 74
0
 49
-2.9000000000000004
 74
0
 49
0.1
 74
0
 49
-2.9500000000000002
 74
0
  0
LTYPE
  5
37
100
AcDbSymbolTableRecord
100
AcDbLinetypeTableRecord
  2
DIVIDEX2
 70
0
  3
Divide (2x) ________  .  .  ________  .  .  _
 72
65
 73
6
 40
63.5
 49
25.399999999999999
 74
0
 49
-12.649999999999999
 74
0
 49
0.1
 74
0
 49
-12.599999999999998
 74
0
 49
0.1
 74
0
 49
-12.649999999999999
 74
0
  0
LTYPE
  5
38
100
AcDbSymbolTableRecord
100
AcDbLinetypeTableRecord
  2
DASHEDX2
 70
0
  3
Dashed (2x) ____  ____  ____  ____  ____  ___
 72
65
 73
2
 40
38.099999999999994
 49
25.399999999999999
 74
0
 49
-12.699999999999999
 74
0
  0
LTYPE
  5
39
100
AcDbSymbolTableRecord
100
AcDbLinetypeTableRecord
  2
HIDDEN
 70
0
  3
Hidden __ __ __ __ __ __ __ __ __ __ __ __ __ __
 72
65
 73
2
 40
9.5249999999999986
 49
6.3499999999999996
 74
0
 49
-3.1749999999999998
 74
0
  0
LTYPE
  5
3A
100
AcDbSymbolTableRecord
100
AcDbLinetypeTableRecord
  2
PHANTOMX2
 70
0
  3
Phantom (2x) ____________    ____    ____   _
 72
65
 73
6
 40
127.00000000000001
 49
63.5
 74
0
 49
-12.699999999999999
 74
0
 49
12.699999999999999
 74
0
 49
-12.699999999999999
 74
0
 49
12.699999999999999
 74
0
 49
-12.699999999999999
 74
0
  0
LTYPE
  5
3B
100
AcDbSymbolTableRecord
100
AcDbLinetypeTableRecord
  2
ACAD_ISO06W100
 70
0
  3
ISO long-dash triple-dot ____ ... ____ ... ____
 72
65
 73
8
 40
36.000000000000007
 49
24.0
 74
0
 49
-2.9500000000000002
 74
0
 49
0.1
 74
0
 49
-2.9000000000000004
 74
0
 49
0.1
 74
0
 49
-2.9000000000000004
 74
0
 49
0.1
 74
0
 49
-2.9500000000000002
 74
0
  0
LTYPE
  5
3C
100
AcDbSymbolTableRecord
100
AcDbLinetypeTableRecord
  2
HIDDEN2
 70
0
  3
Hidden (.5x) _ _ _ _ _ _ _ _ _ _ _ _ _ _ _ _ _ 
 72
65
 73
2
 40
4.7624999999999993
 49
3.1749999999999998
 74
0
 49
-1.5874999999999999
 74
0
  0
LTYPE
  5
3D
100
AcDbSymbolTableRecord
100
AcDbLinetypeTableRecord
  2
DASHDOTX2
 70
0
  3
Dash dot (2x) ____  .  ____  .  ____  .  ___
 72
65
 73
4
 40
50.799999999999997
 49
25.399999999999999
 74
0
 49
-12.649999999999999
 74
0
 49
0.1
 74
0
 49
-12.649999999999999
 74
0
  0
LTYPE
  5
3E
100
AcDbSymbolTableRecord
100
AcDbLinetypeTableRecord
  2
ACAD_ISO02W100
 70
0
  3
ISO dash __ __ __ __ __ __ __ __ __ __ __ __ __
 72
65
 73
2
 40
15.0
 49
12.0
 74
0
 49
-3.0
 74
0
  0
LTYPE
  5
3F
100
AcDbSymbolTableRecord
100
AcDbLinetypeTableRecord
  2
DIVIDE
 70
0
  3
Divide ____ . . ____ . . ____ . . ____ . . ____
 72
65
 73
6
 40
31.750000000000004
 49
12.699999999999999
 74
0
 49
-6.2999999999999998
 74
0
 49
0.1
 74
0
 49
-6.25
 74
0
 49
0.1
 74
0
 49
-6.2999999999999998
 74
0
  0
LTYPE
  5
40
100
AcDbSymbolTableRecord
100
AcDbLinetypeTableRecord
  2
PHANTOM2
 70
0
  3
Phantom (.5x) ___ _ _ ___ _ _ ___ _ _ ___ _ _
 72
65
 73
6
 40
31.750000000000004
 49
15.875
 74
0
 49
-3.1749999999999998
 74
0
 49
3.1749999999999998
 74
0
 49
-3.1749999999999998
 74
0
 49
3.1749999999999998
 74
0
 49
-3.1749999999999998
 74
0
  0
LTYPE
  5
14
100
AcDbSymbolTableRecord
100
AcDbLinetypeTableRecord
  2
BYBLOCK
 70
0
  3

 72
65
 73
0
 40
0.0
  0
LTYPE
  5
41
100
AcDbSymbolTableRecord
100
AcDbLinetypeTableRecord
  2
BORDERX2
 70
0
  3
Border (2x) ____  ____  .  ____  ____  .  ___
 72
65
 73
6
 40
88.899999999999977
 49
25.399999999999999
 74
0
 49
-12.699999999999999
 74
0
 49
25.399999999999999
 74
0
 49
-12.649999999999999
 74
0
 49
0.1
 74
0
 49
-12.649999999999999
 74
0
  0
LTYPE
  5
42
100
AcDbSymbolTableRecord
100
AcDbLinetypeTableRecord
  2
DASHED
 70
0
  3
Dashed __ __ __ __ __ __ __ __ __ __ __ __ __ _
 72
65
 73
2
 40
19.049999999999997
 49
12.699999999999999
 74
0
 49
-6.3499999999999996
 74
0
  0
LTYPE
  5
43
100
AcDbSymbolTableRecord
100
AcDbLinetypeTableRecord
  2
ACAD_ISO09W100
 70
0
  3
ISO long-dash double-short-dash ____ __ __ ____
 72
65
 73
6
 40
45.0
 49
24.0
 74
0
 49
-3.0
 74
0
 49
6.0
 74
0
 49
-3.0
 74
0
 49
6.0
 74
0
 49
-3.0
 74
0
  0
LTYPE
  5
44
100
AcDbSymbolTableRecord
100
AcDbLinetypeTableRecord
  2
CENTER
 70
0
  3
Center ____ _ ____ _ ____ _ ____ _ ____ _ ____
 72
65
 73
4
 40
50.800000000000004
 49
31.75
 74
0
 49
-6.3499999999999996
 74
0
 49
6.3499999999999996
 74
0
 49
-6.3499999999999996
 74
0
  0
LTYPE
  5
45
100
AcDbSymbolTableRecord
100
AcDbLinetypeTableRecord
  2
ACAD_ISO04W100
 70
0
  3
ISO long-dash dot ____ . ____ . ____ . ____ . _
 72
65
 73
4
 40
30.0
 49
24.0
 74
0
 49
-2.9500000000000002
 74
0
 49
0.1
 74
0
 49
-2.9500000000000002
 74
0
  0
LTYPE
  5
46
100
AcDbSymbolTableRecord
100
AcDbLinetypeTableRecord
  2
ACAD_ISO03W100
 70
0
  3
ISO dash space __    __    __    __    __    __
 72
65
 73
2
 40
30.0
 49
12.0
 74
0
 49
-18.0
 74
0
  0
LTYPE
  5
47
100
AcDbSymbolTableRecord
100
AcDbLinetypeTableRecord
  2
HIDDENX2
 70
0
  3
Hidden (2x) ____ ____ ____ ____ ____ ____ ____ 
 72
65
 73
2
 40
19.049999999999997
 49
12.699999999999999
 74
0
 49
-6.3499999999999996
 74
0
  0
LTYPE
  5
48
100
AcDbSymbolTableRecord
100
AcDbLinetypeTableRecord
  2
DOTX2
 70
0
  3
Dot (2x) .  .  .  .  .  .  .  .  .  .  .  .  .  .
 72
65
 73
2
 40
12.699999999999999
 49
0.1
 74
0
 49
-12.6
 74
0
  0
LTYPE
  5
49
100
AcDbSymbolTableRecord
100
AcDbLinetypeTableRecord
  2
ACAD_ISO14W100
 70
0
  3
ISO dash triple-dot __ . . . __ . . . __ . . . _
 72
65
 73
8
 40
24.000000000000004
 49
12.0
 74
0
 49
-2.9500000000000002
 74
0
 49
0.1
 74
0
 49
-2.9000000000000004
 74
0
 49
0.1
 74
0
 49
-2.9000000000000004
 74
0
 49
0.1
 74
0
 49
-2.9500000000000002
 74
0
  0
LTYPE
  5
4A
100
AcDbSymbolTableRecord
100
AcDbLinetypeTableRecord
  2
CENTERX2
 70
0
  3
Center (2x) ________  __  ________  __  _____
 72
65
 73
4
 40
101.60000000000001
 49
63.5
 74
0
 49
-12.699999999999999
 74
0
 49
12.699999999999999
 74
0
 49
-12.699999999999999
 74
0
  0
LTYPE
  5
4B
100
AcDbSymbolTableRecord
100
AcDbLinetypeTableRecord
  2
DOT2
 70
0
  3
Dot (.5x) ........................................
 72
65
 73
2
 40
3.1749999999999998
 49
0.1
 74
0
 49
-3.0749999999999997
 74
0
  0
LTYPE
  5
4C
100
AcDbSymbolTableRecord
100
AcDbLinetypeTableRecord
  2
DASHDOT
 70
0
  3
Dash dot __ . __ . __ . __ . __ . __ . __ . __
 72
65
 73
4
 40
25.400000000000002
 49
12.699999999999999
 74
0
 49
-6.2999999999999998
 74
0
 49
0.1
 74
0
 49
-6.2999999999999998
 74
0
  0
LTYPE
  5
4D
100
AcDbSymbolTableRecord
100
AcDbLinetypeTableRecord
  2
PHANTOM
 70
0
  3
Phantom ______  __  __  ______  __  __  ______ 
 72
65
 73
6
 40
63.500000000000007
 49
31.75
 74
0
 49
-6.3499999999999996
 74
0
 49
6.3499999999999996
 74
0
 49
-6.3499999999999996
 74
0
 49
6.3499999999999996
 74
0
 49
-6.3499999999999996
 74
0
  0
LTYPE
  5
4E
100
AcDbSymbolTableRecord
100
AcDbLinetypeTableRecord
  2
ACAD_ISO08W100
 70
0
  3
ISO long-dash short-dash ____ __ ____ __ ____ _
 72
65
 73
4
 40
36.0
 49
24.0
 74
0
 49
-3.0
 74
0
 49
6.0
 74
0
 49
-3.0
 74
0
  0
LTYPE
  5
4F
100
AcDbSymbolTableRecord
100
AcDbLinetypeTableRecord
  2
DASHDOT2
 70
0
  3
Dash dot (.5x) _._._._._._._._._._._._._._._.
 72
65
 73
4
 40
12.699999999999999
 49
6.3499999999999996
 74
0
 49
-3.125
 74
0
 49
0.1
 74
0
 49
-3.125
 74
0
  0
LTYPE
  5
50
100
AcDbSymbolTableRecord
100
AcDbLinetypeTableRecord
  2
DIVIDE2
 70
0
  3
Divide (.5x) __..__..__..__..__..__..__..__.._
 72
65
 73
6
 40
15.874999999999998
 49
6.3499999999999996
 74
0
 49
-3.125
 74
0
 49
0.1
 74
0
 49
-3.0750000000000002
 74
0
 49
0.1
 74
0
 49
-3.125
 74
0
  0
LTYPE
  5
51
100
AcDbSymbolTableRecord
100
AcDbLinetypeTableRecord
  2
ACAD_ISO11W100
 70
0
  3
ISO double-dash dot __ __ . __ __ . __ __ . __ _
 72
65
 73
6
 40
33.0
 49
12.0
 74
0
 49
-3.0
 74
0
 49
12.0
 74
0
 49
-2.9500000000000002
 74
0
 49
0.1
 74
0
 49
-2.9500000000000002
 74
0
  0
LTYPE
  5
52
100
AcDbSymbolTableRecord
100
AcDbLinetypeTableRecord
  2
ACAD_ISO12W100
 70
0
  3
ISO dash double-dot __ . . __ . . __ . . __ . . 
 72
65
 73
6
 40
21.0
 49
12.0
 74
0
 49
-2.9500000000000002
 74
0
 49
0.1
 74
0
 49
-2.9000000000000004
 74
0
 49
0.1
 74
0
 49
-2.9500000000000002
 74
0
  0
LTYPE
  5
53
100
AcDbSymbolTableRecord
100
AcDbLinetypeTableRecord
  2
ACAD_ISO13W100
 70
0
  3
ISO double-dash double-dot __ __ . . __ __ . . _
 72
65
 73
8
 40
36.000000000000007
 49
12.0
 74
0
 49
-3.0
 74
0
 49
12.0
 74
0
 49
-2.9500000000000002
 74
0
 49
0.1
 74
0
 49
-2.9000000000000004
 74
0
 49
0.1
 74
0
 49
-2.9500000000000002
 74
0
  0
LTYPE
  5
54
100
AcDbSymbolTableRecord
100
AcDbLinetypeTableRecord
  2
BORDER
 70
0
  3
Border __ __ . __ __ . __ __ . __ __ . __ __ .
 72
65
 73
6
 40
44.449999999999996
 49
12.699999999999999
 74
0
 49
-6.3499999999999996
 74
0
 49
12.699999999999999
 74
0
 49
-6.2999999999999998
 74
0
 49
0.1
 74
0
 49
-6.2999999999999998
 74
0
  0
LTYPE
  5
55
100
AcDbSymbolTableRecord
100
AcDbLinetypeTableRecord
  2
ACAD_ISO07W100
 70
0
  3
ISO dot . . . . . . . . . . . . . . . . . . . . 
 72
65
 73
2
 40
3.0
 49
0.1
 74
0
 49
-2.8999999999999999
 74
0
  0
LTYPE
  5
56
100
AcDbSymbolTableRecord
100
AcDbLinetypeTableRecord
  2
CENTER2
 70
0
  3
Center (.5x) ___ _ ___ _ ___ _ ___ _ ___ _ ___
 72
65
 73
4
 40
28.575000000000003
 49
19.050000000000001
 74
0
 49
-3.1749999999999998
 74
0
 49
3.1749999999999998
 74
0
 49
-3.1749999999999998
 74
0
  0
LTYPE
  5
15
100
AcDbSymbolTableRecord
100
AcDbLinetypeTableRecord
  2
BYLAYER
 70
0
  3

 72
65
 73
0
 40
0.0
  0
ENDTAB
  0
TABLE
  2
LAYER
  5
2
100
AcDbSymbolTable
 70
1
  0
LAYER
  5
10
100
AcDbSymbolTableRecord
100
AcDbLayerTableRecord
  2
0
 70
0
 62
7
420
16777215
  6
Continuous
370
0
390
F
  0
ENDTAB
  0
TABLE
  2
STYLE
  5
3
100
AcDbSymbolTable
 70
1
  0
STYLE
  5
57
100
AcDbSymbolTableRecord
100
AcDbTextStyleTableRecord
  2
Standard
 70
0
 40
0.0
 41
1.0
 50
0.0
 71
0
 42
2.5
  3

  4

1001
ACAD
1000
txt
1071
0
  0
ENDTAB
  0
TABLE
  2
VIEW
  5
6
100
AcDbSymbolTable
 70
0
  0
ENDTAB
  0
TABLE
  2
UCS
  5
7
100
AcDbSymbolTable
 70
0
  0
ENDTAB
  0
TABLE
  2
APPID
  5
9
100
AcDbSymbolTable
 70
1
  0
APPID
  5
12
100
AcDbSymbolTableRecord
100
AcDbRegAppTableRecord
  2
ACAD
 70
0
  0
APPID
  5
58
100
AcDbSymbolTableRecord
100
AcDbRegAppTableRecord
  2
QCAD
 70
0
  0
ENDTAB
  0
TABLE
  2
DIMSTYLE
  5
A
100
AcDbSymbolTable
 70
1
100
AcDbDimStyleTable
 71
0
  0
DIMSTYLE
105
27
100
AcDbSymbolTableRecord
100
AcDbDimStyleTableRecord
  2
Standard
 41
2.5
 42
0.625
 43
3.75
 44
1.25
 70
0
 73
0
 74
0
 77
1
 78
8
140
2.5
141
2.5
143
0.03937007874016
147
0.625
171
3
172
1
271
2
272
2
274
3
278
44
283
0
284
8
340
57
  0
ENDTAB
  0
TABLE
  2
BLOCK_RECORD
  5
1
100
AcDbSymbolTable
 70
1
  0
BLOCK_RECORD
  5
1F
100
AcDbSymbolTableRecord
100
AcDbBlockTableRecord
  2
*Model_Space
340
22
  0
BLOCK_RECORD
  5
1B
100
AcDbSymbolTableRecord
100
AcDbBlockTableRecord
  2
*Paper_Space
340
1E
  0
BLOCK_RECORD
  5
23
100
AcDbSymbolTableRecord
100
AcDbBlockTableRecord
  2
*Paper_Space0
340
26
  0
ENDTAB
  0
ENDSEC
  0
SECTION
  2
BLOCKS
  0
BLOCK
  5
20
100
AcDbEntity
  8
0
100
AcDbBlockBegin
  2
*Model_Space
 70
0
 10
0.0
 20
0.0
 30
0.0
  3
*Model_Space
  1

  0
ENDBLK
  5
21
100
AcDbEntity
  8
0
100
AcDbBlockEnd
  0
BLOCK
  5
1C
100
AcDbEntity
 67
1
  8
0
100
AcDbBlockBegin
  2
*Paper_Space
 70
0
 10
0.0
 20
0.0
 30
0.0
  3
*Paper_Space
  1

  0
ENDBLK
  5
1D
100
AcDbEntity
 67
1
  8
0
100
AcDbBlockEnd
  0
BLOCK
  5
24
100
AcDbEntity
  8
0
100
AcDbBlockBegin
  2
*Paper_Space0
 70
0
 10
0.0
 20
0.0
 30
0.0
  3
*Paper_Space0
  1

  0
ENDBLK
  5
25
100
AcDbEntity
  8
0
100
AcDbBlockEnd
  0
ENDSEC
  0
SECTION
  2
ENTITIES
  0
CIRCLE
  5
59
100
AcDbEntity
  8
0
 62
256
370
-1
 48
1.0
  6
BYLAYER
100
AcDbCircle
 10
10.0
 20
10.0
 30
0.0
 40
2.75
  0
CIRCLE
  5
5A
100
AcDbEntity
  8
0
 62
256
370
-1
 48
1.0
  6
BYLAYER
100
AcDbCircle
 10
254.0
 20
10.0
 30
0.0
 40
2.75
  0
CIRCLE
  5
5B
100
AcDbEntity
  8
0
 62
256
370
-1
 48
1.0
  6
BYLAYER
100
AcDbCircle
 10
132.0
 20
254.0
 30
0.0
 40
2.75
  0
LINE
  5
5C
100
AcDbEntity
  8
0
 62
256
370
-1
 48
1.0
  6
BYLAYER
100
AcDbLine
 10
187.0
 20
252.5
 30
0.0
 11
187.0
 21
259.0
 31
0.0
  0
LINE
  5
5D
100
AcDbEntity
  8
0
 62
256
370
-1
 48
1.0
  6
BYLAYER
100
AcDbLine
 10
124.25
 20
252.5
 30
0.0
 11
124.25
 21
259.0
 31
0.0
  0
ARC
  5
5E
100
AcDbEntity
  8
0
 62
256
370
-1
 48
1.0
  6
BYLAYER
100
AcDbCircle
 10
182.0
 20
259.0
 30
0.0
 40
5.0
100
AcDbArc
 50
0.0
 51
90.0
  0
ARC
  5
5F
100
AcDbEntity
  8
0
 62
256
370
-1
 48
1.0
  6
BYLAYER
100
AcDbCircle
 10
129.25
 20
259.0
 30
0.0
 40
5.0
100
AcDbArc
 50
90.0
 51
180.0
  0
LINE
  5
60
100
AcDbEntity
  8
0
 62
256
370
-1
 48
1.0
  6
BYLAYER
100
AcDbLine
 10
129.25
 20
264.0
 30
0.0
 11
182.0
 21
264.0
 31
0.0
  0
CIRCLE
  5
61
100
AcDbEntity
  8
0
 62
256
370
-1
 48
1.0
  6
BYLAYER
100
AcDbCircle
 10
46.500000000000007
 20
46.5
 30
0.0
 40
2.2000000000000002
  0
CIRCLE
  5
62
100
AcDbEntity
  8
0
 62
256
370
-1
 48
1.0
  6
BYLAYER
100
AcDbCircle
 10
217.50000000000006
 20
46.5
 30
0.0
 40
2.2000000000000002
  0
CIRCLE
  5
63
100
AcDbEntity
  8
0
 62
256
370
-1
 48
1.0
  6
BYLAYER
100
AcDbCircle
 10
217.5
 20
217.5
 30
0.0
 40
2.2000000000000002
  0
CIRCLE
  5
64
100
AcDbEntity
  8
0
 62
256
370
-1
 48
1.0
  6
BYLAYER
100
AcDbCircle
 10
46.500000000000021
 20
217.49999999999994
 30
0.0
 40
2.2000000000000002
  0
LINE
  5
65
100
AcDbEntity
  8
0
 62
256
370
-1
 48
1.0
  6
BYLAYER
100
AcDbLine
 10
50.813708498984852
 20
227.49999999999997
 30
0.0
 11
213.18629150101529
 21
227.5
 31
0.0
  0
LINE
  5
66
100
AcDbEntity
  8
0
 62
256
370
-1
 48
1.0
  6
BYLAYER
100
AcDbLine
 10
36.5
 20
50.813708498984766
 30
0.0
 11
36.500000000000014
 21
213.18629150101523
 31
0.0
  0
LINE
  5
67
100
AcDbEntity
  8
0
 62
256
370
-1
 48
1.0
  6
BYLAYER
100
AcDbLine
 10
50.813708498984766
 20
36.5
 30
0.0
 11
213.18629150101523
 21
36.5
 31
0.0
  0
LINE
  5
68
100
AcDbEntity
  8
0
 62
256
370
-1
 48
1.0
  6
BYLAYER
100
AcDbLine
 10
227.5
 20
213.18629150101523
 30
0.0
 11
227.50000000000003
 21
50.81370849898471
 31
0.0
  0
LINE
  5
69
100
AcDbEntity
  8
0
 62
256
370
-1
 48
1.0
  6
BYLAYER
100
AcDbLine
 10
122.80761184457489
 20
134.12132034355963
 30
0.0
 11
41.62132034355966
 21
215.30761184457486
 31
0.0
  0
LINE
  5
6A
100
AcDbEntity
  8
0
 62
256
370
-1
 48
1.0
  6
BYLAYER
100
AcDbLine
 10
215.30761184457486
 20
41.621320343559645
 30
0.0
 11
134.12132034355966
 21
122.80761184457486
 31
0.0
  0
LINE
  5
6B
100
AcDbEntity
  8
0
 62
256
370
-1
 48
1.0
  6
BYLAYER
100
AcDbLine
 10
222.3786796564404
 20
48.692388155425093
 30
0.0
 11
141.19238815542514
 21
129.87867965644031
 31
0.0
  0
LINE
  5
6C
100
AcDbEntity
  8
0
 62
256
370
-1
 48
1.0
  6
BYLAYER
100
AcDbLine
 10
129.8786796564404
 20
141.19238815542511
 30
0.0
 11
48.69238815542522
 21
222.37867965644028
 31
0.0
  0
LINE
  5
6D
100
AcDbEntity
  8
0
 62
256
370
-1
 48
1.0
  6
BYLAYER
100
AcDbLine
 10
134.12132034355966
 20
141.19238815542514
 30
0.0
 11
215.30761184457492
 21
222.3786796564404
 31
0.0
  0
LINE
  5
6E
100
AcDbEntity
  8
0
 62
256
370
-1
 48
1.0
  6
BYLAYER
100
AcDbLine
 10
41.621320343559645
 20
48.692388155425121
 30
0.0
 11
122.80761184457485
 21
129.87867965644034
 31
0.0
  0
LINE
  5
6F
100
AcDbEntity
  8
0
 62
256
370
-1
 48
1.0
  6
BYLAYER
100
AcDbLine
 10
48.692388155425121
 20
41.621320343559645
 30
0.0
 11
129.8786796564404
 21
122.80761184457489
 31
0.0
  0
LINE
  5
70
100
AcDbEntity
  8
0
 62
256
370
-1
 48
1.0
  6
BYLAYER
100
AcDbLine
 10
141.19238815542511
 20
134.1213203435596
 30
0.0
 11
222.3786796564404
 21
215.30761184457486
 31
0.0
  0
LINE
  5
71
100
AcDbEntity
  8
0
 62
256
370
-1
 48
1.0
  6
BYLAYER
100
AcDbLine
 10
26.5
 20
38.702795795510774
 30
0.0
 11
26.500000000000014
 21
217.32842712474613
 31
0.0
  0
LINE
  5
72
100
AcDbEntity
  8
0
 62
256
370
-1
 48
1.0
  6
BYLAYER
100
AcDbLine
 10
38.702795795510774
 20
26.5
 30
0.0
 11
225.29720420448925
 21
26.5
 31
0.0
  0
LINE
  5
73
100
AcDbEntity
  8
0
 62
256
370
-1
 48
1.0
  6
BYLAYER
100
AcDbLine
 10
237.5
 20
217.3284271247463
 30
0.0
 11
237.50000000000003
 21
38.702795795510724
 31
0.0
  0
LINE
  5
74
100
AcDbEntity
  8
0
 62
256
370
-1
 48
1.0
  6
BYLAYER
100
AcDbLine
 10
46.671572875253979
 20
237.49999999999997
 30
0.0
 11
121.25000000000003
 21
237.49999999999997
 31
0.0
  0
LINE
  5
75
100
AcDbEntity
  8
0
 62
256
370
-1
 48
1.0
  6
BYLAYER
100
AcDbLine
 10
190.00000000000003
 20
237.5
 30
0.0
 11
217.32842712474621
 21
237.5
 31
0.0
  0
LINE
  5
76
100
AcDbEntity
  8
0
 62
256
370
-1
 48
1.0
  6
BYLAYER
100
AcDbLine
 10
187.0
 20
252.5
 30
0.0
 11
187.00000000000003
 21
240.49999999999997
 31
0.0
  0
LINE
  5
77
100
AcDbEntity
  8
0
 62
256
370
-1
 48
1.0
  6
BYLAYER
100
AcDbLine
 10
124.25
 20
252.5
 30
0.0
 11
124.25000000000003
 21
240.5
 31
0.0
  0
LINE
  5
78
100
AcDbEntity
  8
0
 62
256
370
-1
 48
1.0
  6
BYLAYER
100
AcDbLine
 10
11.676776695296633
 20
22.636931803688121
 30
0.0
 11
25.621320343559638
 21
36.581475451951128
 31
0.0
  0
LINE
  5
79
100
AcDbEntity
  8
0
 62
256
370
-1
 48
1.0
  6
BYLAYER
100
AcDbLine
 10
2.5711684333358655
 20
13.531323541727353
 30
0.0
 11
11.676776695296633
 21
22.636931803688121
 31
0.0
  0
LINE
  5
7A
100
AcDbEntity
  8
0
 62
256
370
-1
 48
1.0
  6
BYLAYER
100
AcDbLine
 10
22.636931803688128
 20
11.676776695296638
 30
0.0
 11
36.581475451951135
 21
25.621320343559642
 31
0.0
  0
LINE
  5
7B
100
AcDbEntity
  8
0
 62
256
370
-1
 48
1.0
  6
BYLAYER
100
AcDbLine
 10
13.539743122605138
 20
2.5795880142136505
 30
0.0
 11
22.636931803688128
 21
11.676776695296638
 31
0.0
  0
LINE
  5
7C
100
AcDbEntity
  8
0
 62
256
370
-1
 48
1.0
  6
BYLAYER
100
AcDbLine
 10
241.3630681963119
 20
11.676776695296621
 30
0.0
 11
227.41852454804885
 21
25.621320343559642
 31
0.0
  0
LINE
  5
7D
100
AcDbEntity
  8
0
 62
256
370
-1
 48
1.0
  6
BYLAYER
100
AcDbLine
 10
252.32322330470336
 20
22.636931803688135
 30
0.0
 11
238.3786796564404
 21
36.581475451951114
 31
0.0
  0
LINE
  5
7E
100
AcDbEntity
  8
0
 62
256
370
-1
 48
1.0
  6
BYLAYER
100
AcDbLine
 10
261.42462120245875
 20
13.535533905932738
 30
0.0
 11
252.32322330470336
 21
22.636931803688135
 31
0.0
  0
LINE
  5
7F
100
AcDbEntity
  8
0
 62
256
370
-1
 48
1.0
  6
BYLAYER
100
AcDbLine
 10
250.46446609406723
 20
2.5753787975412852
 30
0.0
 11
241.3630681963119
 21
11.676776695296622
 31
0.0
  0
ARC
  5
80
100
AcDbEntity
  8
0
 62
256
370
-1
 48
1.0
  6
BYLAYER
100
AcDbCircle
 10
8.0554541597505214
 20
8.0554573937061598
 30
0.0
 40
7.75
100
AcDbArc
 50
135.04401455544209
 51
315.04401455544212
  0
ARC
  5
81
100
AcDbEntity
  8
0
 62
256
370
-1
 48
1.0
  6
BYLAYER
100
AcDbCircle
 10
255.94454364826302
 20
8.0554563517370088
 30
0.0
 40
7.75
100
AcDbArc
 50
224.99999999999989
 51
45.00000000000005
  0
ARC
  5
82
100
AcDbEntity
  8
0
 62
256
370
-1
 48
1.0
  6
BYLAYER
100
AcDbCircle
 10
121.25000000000004
 20
240.5
 30
0.0
 40
3.0
100
AcDbArc
 50
269.99999999999966
 51
0.0
  0
ARC
  5
83
100
AcDbEntity
  8
0
 62
256
370
-1
 48
1.0
  6
BYLAYER
100
AcDbCircle
 10
190.00000000000003
 20
240.49999999999997
 30
0.0
 40
3.0
100
AcDbArc
 50
180.0
 51
270.0
  0
ARC
  5
84
100
AcDbEntity
  8
0
 62
256
370
-1
 48
1.0
  6
BYLAYER
100
AcDbCircle
 10
240.5
 20
38.702795795510731
 30
0.0
 40
3.0
100
AcDbArc
 50
180.0
 51
225.00000000000011
  0
ARC
  5
85
100
AcDbEntity
  8
0
 62
256
370
-1
 48
1.0
  6
BYLAYER
100
AcDbCircle
 10
225.29720420448922
 20
23.5
 30
0.0
 40
3.0
100
AcDbArc
 50
45.000000000000099
 51
89.999999999999474
  0
ARC
  5
86
100
AcDbEntity
  8
0
 62
256
370
-1
 48
1.0
  6
BYLAYER
100
AcDbCircle
 10
38.702795795510774
 20
23.5
 30
0.0
 40
3.0
100
AcDbArc
 50
90.0
 51
134.99999999999994
  0
ARC
  5
87
100
AcDbEntity
  8
0
 62
256
370
-1
 48
1.0
  6
BYLAYER
100
AcDbCircle
 10
23.499999999999996
 20
38.702795795510774
 30
0.0
 40
3.0
100
AcDbArc
 50
314.99999999999994
 51
0.0
  0
ARC
  5
88
100
AcDbEntity
  8
0
 62
256
370
-1
 48
1.0
  6
BYLAYER
100
AcDbCircle
 10
120.68629150101522
 20
131.99999999999997
 30
0.0
 40
3.0
100
AcDbArc
 50
315.0
 51
44.999999999999808
  0
ARC
  5
89
100
AcDbEntity
  8
0
 62
256
370
-1
 48
1.0
  6
BYLAYER
100
AcDbCircle
 10
132.00000000000003
 20
143.31370849898477
 30
0.0
 40
3.0
100
AcDbArc
 50
225.0
 51
315.0
  0
ARC
  5
8A
100
AcDbEntity
  8
0
 62
256
370
-1
 48
1.0
  6
BYLAYER
100
AcDbCircle
 10
143.31370849898474
 20
131.99999999999997
 30
0.0
 40
3.0
100
AcDbArc
 50
135.0
 51
225.0000000000004
  0
ARC
  5
8B
100
AcDbEntity
  8
0
 62
256
370
-1
 48
1.0
  6
BYLAYER
100
AcDbCircle
 10
132.00000000000003
 20
120.68629150101523
 30
0.0
 40
3.0
100
AcDbArc
 50
45.0
 51
134.9999999999998
  0
ARC
  5
8C
100
AcDbEntity
  8
0
 62
256
370
-1
 48
1.0
  6
BYLAYER
100
AcDbCircle
 10
50.813708498984852
 20
224.49999999999994
 30
0.0
 40
3.0
100
AcDbArc
 50
90.0
 51
225.0000000000004
  0
ARC
  5
8D
100
AcDbEntity
  8
0
 62
256
370
-1
 48
1.0
  6
BYLAYER
100
AcDbCircle
 10
39.500000000000014
 20
213.18629150101523
 30
0.0
 40
3.0
100
AcDbArc
 50
45.0
 51
180.0
  0
ARC
  5
8E
100
AcDbEntity
  8
0
 62
256
370
-1
 48
1.0
  6
BYLAYER
100
AcDbCircle
 10
213.18629150101529
 20
224.50000000000003
 30
0.0
 40
3.0
100
AcDbArc
 50
315.0
 51
90.0
  0
ARC
  5
8F
100
AcDbEntity
  8
0
 62
256
370
-1
 48
1.0
  6
BYLAYER
100
AcDbCircle
 10
224.50000000000006
 20
213.18629150101523
 30
0.0
 40
3.0
100
AcDbArc
 50
0.0
 51
135.0000000000004
  0
ARC
  5
90
100
AcDbEntity
  8
0
 62
256
370
-1
 48
1.0
  6
BYLAYER
100
AcDbCircle
 10
224.50000000000003
 20
50.813708498984724
 30
0.0
 40
3.0
100
AcDbArc
 50
225.0
 51
360.0
  0
ARC
  5
91
100
AcDbEntity
  8
0
 62
256
370
-1
 48
1.0
  6
BYLAYER
100
AcDbCircle
 10
213.18629150101523
 20
39.5
 30
0.0
 40
3.0
100
AcDbArc
 50
270.0
 51
45.000000000000099
  0
ARC
  5
92
100
AcDbEntity
  8
0
 62
256
370
-1
 48
1.0
  6
BYLAYER
100
AcDbCircle
 10
50.813708498984766
 20
39.5
 30
0.0
 40
3.0
100
AcDbArc
 50
135.0
 51
270.0
  0
ARC
  5
93
100
AcDbEntity
  8
0
 62
256
370
-1
 48
1.0
  6
BYLAYER
100
AcDbCircle
 10
39.5
 20
50.813708498984766
 30
0.0
 40
3.0
100
AcDbArc
 50
180.0
 51
315.0
  0
LINE
  5
94
100
AcDbEntity
  8
0
 62
256
370
-1
 48
1.0
  6
BYLAYER
100
AcDbLine
 10
27.37867965644034
 20
219.44974746830582
 30
0.0
 11
44.550252531694369
 21
236.62132034355966
 31
0.0
  0
LINE
  5
95
100
AcDbEntity
  8
0
 62
256
370
-1
 48
1.0
  6
BYLAYER
100
AcDbLine
 10
236.6213203435596
 20
219.4497474683059
 30
0.0
 11
219.44974746830587
 21
236.62132034355963
 31
0.0
  0
ARC
  5
96
100
AcDbEntity
  8
0
 62
256
370
-1
 48
1.0
  6
BYLAYER
100
AcDbCircle
 10
29.500000000000004
 20
217.32842712474613
 30
0.0
 40
3.0
100
AcDbArc
 50
134.99999999999966
 51
180.0
  0
ARC
  5
97
100
AcDbEntity
  8
0
 62
256
370
-1
 48
1.0
  6
BYLAYER
100
AcDbCircle
 10
46.671572875253979
 20
234.5
 30
0.0
 40
3.0
100
AcDbArc
 50
90.0
 51
134.99999999999952
  0
ARC
  5
98
100
AcDbEntity
  8
0
 62
256
370
-1
 48
1.0
  6
BYLAYER
100
AcDbCircle
 10
217.32842712474621
 20
234.49999999999997
 30
0.0
 40
3.0
100
AcDbArc
 50
45.000000000000007
 51
90.0
  0
ARC
  5
99
100
AcDbEntity
  8
0
 62
256
370
-1
 48
1.0
  6
BYLAYER
100
AcDbCircle
 10
234.5
 20
217.3284271247463
 30
0.0
 40
3.0
100
AcDbArc
 50
0.0
 51
45.0
  0
ARC
  5
9A
100
AcDbEntity
  8
0
 62
256
370
-1
 48
1.0
  6
BYLAYER
100
AcDbCircle
 10
162.5
 20
240.0
 30
0.0
 40
2.5
100
AcDbArc
 50
0.0
 51
180.0
  0
ARC
  5
9B
100
AcDbEntity
  8
0
 62
256
370
-1
 48
1.0
  6
BYLAYER
100
AcDbCircle
 10
162.5
 20
254.49999999999997
 30
0.0
 40
2.5
100
AcDbArc
 50
0.0
 51
180.0
  0
ARC
  5
9C
100
AcDbEntity
  8
0
 62
256
370
-1
 48
1.0
  6
BYLAYER
100
AcDbCircle
 10
172.49999999999997
 20
254.49999999999997
 30
0.0
 40
2.5
100
AcDbArc
 50
0.0
 51
180.0
  0
ARC
  5
9D
100
AcDbEntity
  8
0
 62
256
370
-1
 48
1.0
  6
BYLAYER
100
AcDbCircle
 10
172.5
 20
240.0
 30
0.0
 40
2.5
100
AcDbArc
 50
0.0
 51
180.0
  0
ARC
  5
9E
100
AcDbEntity
  8
0
 62
256
370
-1
 48
1.0
  6
BYLAYER
100
AcDbCircle
 10
162.5
 20
235.0
 30
0.0
 40
2.5
100
AcDbArc
 50
180.0
 51
0.0
  0
ARC
  5
9F
100
AcDbEntity
  8
0
 62
256
370
-1
 48
1.0
  6
BYLAYER
100
AcDbCircle
 10
162.5
 20
249.49999999999997
 30
0.0
 40
2.5
100
AcDbArc
 50
180.0
 51
0.0
  0
ARC
  5
A0
100
AcDbEntity
  8
0
 62
256
370
-1
 48
1.0
  6
BYLAYER
100
AcDbCircle
 10
172.49999999999997
 20
249.49999999999997
 30
0.0
 40
2.5
100
AcDbArc
 50
180.0
 51
0.0
  0
ARC
  5
A1
100
AcDbEntity
  8
0
 62
256
370
-1
 48
1.0
  6
BYLAYER
100
AcDbCircle
 10
172.5
 20
235.0
 30
0.0
 40
2.5
100
AcDbArc
 50
180.0
 51
0.0
  0
LINE
  5
A2
100
AcDbEntity
  8
0
 62
256
370
-1
 48
1.0
  6
BYLAYER
100
AcDbLine
 10
160.0
 20
235.0
 30
0.0
 11
160.0
 21
240.0
 31
0.0
  0
LINE
  5
A3
100
AcDbEntity
  8
0
 62
256
370
-1
 48
1.0
  6
BYLAYER
100
AcDbLine
 10
160.0
 20
249.49999999999997
 30
0.0
 11
160.0
 21
254.49999999999997
 31
0.0
  0
LINE
  5
A4
100
AcDbEntity
  8
0
 62
256
370
-1
 48
1.0
  6
BYLAYER
100
AcDbLine
 10
169.99999999999997
 20
249.49999999999997
 30
0.0
 11
169.99999999999997
 21
254.49999999999997
 31
0.0
  0
LINE
  5
A5
100
AcDbEntity
  8
0
 62
256
370
-1
 48
1.0
  6
BYLAYER
100
AcDbLine
 10
165.0
 20
235.0
 30
0.0
 11
165.0
 21
240.0
 31
0.0
  0
LINE
  5
A6
100
AcDbEntity
  8
0
 62
256
370
-1
 48
1.0
  6
BYLAYER
100
AcDbLine
 10
165.0
 20
249.49999999999997
 30
0.0
 11
165.0
 21
254.49999999999997
 31
0.0
  0
LINE
  5
A7
100
AcDbEntity
  8
0
 62
256
370
-1
 48
1.0
  6
BYLAYER
100
AcDbLine
 10
174.99999999999997
 20
249.49999999999997
 30
0.0
 11
174.99999999999997
 21
254.49999999999997
 31
0.0
  0
LINE
  5
A8
100
AcDbEntity
  8
0
 62
256
370
-1
 48
1.0
  6
BYLAYER
100
AcDbLine
 10
170.0
 20
235.0
 30
0.0
 11
170.0
 21
240.0
 31
0.0
  0
LINE
  5
A9
100
AcDbEntity
  8
0
 62
256
370
-1
 48
1.0
  6
BYLAYER
100
AcDbLine
 10
175.0
 20
235.0
 30
0.0
 11
175.0
 21
240.0
 31
0.0
  0
ENDSEC
  0
SECTION
  2
OBJECTS
  0
DICTIONARY
  5
C
100
AcDbDictionary
280
0
281
1
  3
ACAD_GROUP
350
D
  3
ACAD_LAYOUT
350
1A
  3
ACAD_MLINESTYLE
350
17
  3
ACAD_PLOTSETTINGS
350
19
  3
ACAD_PLOTSTYLENAME
350
E
  3
AcDbVariableDictionary
350
AA
  3
QCAD_OBJECTS
350
AB
  0
DICTIONARY
  5
D
100
AcDbDictionary
280
0
281
1
  0
ACDBDICTIONARYWDFLT
  5
E
100
AcDbDictionary
281
1
  3
Normal
350
F
100
AcDbDictionaryWithDefault
340
F
  0
ACDBPLACEHOLDER
  5
F
  0
DICTIONARY
  5
17
100
AcDbDictionary
280
0
281
1
  3
Standard
350
18
  0
MLINESTYLE
  5
18
100
AcDbMlineStyle
  2
STANDARD
 70
0
  3

 62
256
 51
90.0
 52
90.0
 71
2
 49
0.5
 62
256
  6
BYLAYER
 49
-0.5
 62
256
  6
BYLAYER
  0
DICTIONARY
  5
19
100
AcDbDictionary
280
0
281
1
  0
DICTIONARY
  5
1A
100
AcDbDictionary
281
1
  3
Layout1
350
1E
  3
Layout2
350
26
  3
Model
350
22
  0
LAYOUT
  5
1E
100
AcDbPlotSettings
  1

  2
none_device
  4

  6

 40
0.0
 41
0.0
 42
0.0
 43
0.0
 44
0.0
 45
0.0
 46
0.0
 47
0.0
 48
0.0
 49
0.0
140
0.0
141
0.0
142
1.0
143
1.0
 70
688
 72
0
 73
0
 74
5
  7

 75
16
147
1.0
148
0.0
149
0.0
100
AcDbLayout
  1
Layout1
 70
1
 71
1
 10
0.0
 20
0.0
 11
420.0
 21
297.0
 12
0.0
 22
0.0
 32
0.0
 14
100000000000000000000.0
 24
100000000000000000000.0
 34
100000000000000000000.0
 15
-100000000000000000000.0
 25
-100000000000000000000.0
 35
-100000000000000000000.0
146
0.0
 13
0.0
 23
0.0
 33
0.0
 16
1.0
 26
0.0
 36
0.0
 17
0.0
 27
1.0
 37
0.0
 76
0
330
1B
  0
LAYOUT
  5
22
100
AcDbPlotSettings
  1

  2
none_device
  4

  6

 40
0.0
 41
0.0
 42
0.0
 43
0.0
 44
0.0
 45
0.0
 46
0.0
 47
0.0
 48
0.0
 49
0.0
140
0.0
141
0.0
142
1.0
143
1.0
 70
1712
 72
0
 73
0
 74
0
  7

 75
0
147
1.0
148
0.0
149
0.0
100
AcDbLayout
  1
Model
 70
1
 71
0
 10
0.0
 20
0.0
 11
12.0
 21
9.0
 12
0.0
 22
0.0
 32
0.0
 14
0.0
 24
0.0
 34
0.0
 15
0.0
 25
0.0
 35
0.0
146
0.0
 13
0.0
 23
0.0
 33
0.0
 16
1.0
 26
0.0
 36
0.0
 17
0.0
 27
1.0
 37
0.0
 76
0
330
1F
  0
LAYOUT
  5
26
100
AcDbPlotSettings
  1

  2
none_device
  4

  6

 40
0.0
 41
0.0
 42
0.0
 43
0.0
 44
0.0
 45
0.0
 46
0.0
 47
0.0
 48
0.0
 49
0.0
140
0.0
141
0.0
142
1.0
143
1.0
 70
688
 72
0
 73
0
 74
5
  7

 75
16
147
1.0
148
0.0
149
0.0
100
AcDbLayout
  1
Layout2
 70
1
 71
2
 10
0.0
 20
0.0
 11
12.0
 21
9.0
 12
0.0
 22
0.0
 32
0.0
 14
0.0
 24
0.0
 34
0.0
 15
0.0
 25
0.0
 35
0.0
146
0.0
 13
0.0
 23
0.0
 33
0.0
 16
1.0
 26
0.0
 36
0.0
 17
0.0
 27
1.0
 37
0.0
 76
0
330
23
  0
DICTIONARY
  5
AA
100
AcDbDictionary
281
1
  3
DIMASSOC
350
AD
  3
HIDETEXT
350
AC
  0
DICTIONARYVAR
  5
AC
100
DictionaryVariables
280
0
  1
2
  0
DICTIONARYVAR
  5
AD
100
DictionaryVariables
280
0
  1
1
  0
DICTIONARY
  5
AB
100
AcDbDictionary
281
1
  3
ColorSettings/BackgroundColor
350
AE
  3
ColorSettings/ColorMode
350
AF
  3
Grid/DisplayGrid00
350
B0
  3
Grid/DisplayGrid01
350
B1
  3
Grid/DisplayGrid02
350
B2
  3
Grid/DisplayGrid03
350
B3
  3
Grid/GridSpacingX00
350
B4
  3
Grid/GridSpacingX01
350
B5
  3
Grid/GridSpacingX02
350
B6
  3
Grid/GridSpacingX03
350
B7
  3
Grid/GridSpacingY00
350
B8
  3
Grid/GridSpacingY01
350
B9
  3
Grid/GridSpacingY02
350
BA
  3
Grid/GridSpacingY03
350
BB
  3
Grid/IsometricGrid00
350
BC
  3
Grid/IsometricGrid01
350
BD
  3
Grid/IsometricGrid02
350
BE
  3
Grid/IsometricGrid03
350
BF
  3
Grid/IsometricProjection00
350
C0
  3
Grid/IsometricProjection01
350
C1
  3
Grid/IsometricProjection02
350
C2
  3
Grid/IsometricProjection03
350
C3
  3
Grid/MetaGridSpacingX00
350
C4
  3
Grid/MetaGridSpacingX01
350
C5
  3
Grid/MetaGridSpacingX02
350
C6
  3
Grid/MetaGridSpacingX03
350
C7
  3
Grid/MetaGridSpacingY00
350
C8
  3
Grid/MetaGridSpacingY01
350
C9
  3
Grid/MetaGridSpacingY02
350
CA
  3
Grid/MetaGridSpacingY03
350
CB
  3
MultiPageSettings/Columns
350
CC
  3
MultiPageSettings/GlueMarginsBottom
350
CD
  3
MultiPageSettings/GlueMarginsLeft
350
CE
  3
MultiPageSettings/GlueMarginsRight
350
CF
  3
MultiPageSettings/GlueMarginsTop
350
D0
  3
MultiPageSettings/PrintCropMarks
350
D1
  3
MultiPageSettings/Rows
350
D2
  3
PageSettings/OffsetX
350
D3
  3
PageSettings/OffsetY
350
D4
  3
PageSettings/PageOrientation
350
D5
  3
PageSettings/PaperHeight
350
D6
  3
PageSettings/PaperWidth
350
D7
  3
PageSettings/Scale
350
D8
  3
PageSettings/ShowPaperBorders
350
D9
  3
QCADVersion
350
DA
  3
UnitSettings/PaperUnit
350
DB
  3
ViewportCenter
350
DC
  3
ViewportHeight
350
DD
  3
ViewportWidth
350
DE
  0
XRECORD
  5
AE
330
AB
100
AcDbXrecord
280
1
1000
White
  0
XRECORD
  5
AF
330
AB
100
AcDbXrecord
280
1
1000
FullColor
  0
XRECORD
  5
B0
330
AB
100
AcDbXrecord
280
1
290
1
  0
XRECORD
  5
B1
330
AB
100
AcDbXrecord
280
1
290
1
  0
XRECORD
  5
B2
330
AB
100
AcDbXrecord
280
1
290
1
  0
XRECORD
  5
B3
330
AB
100
AcDbXrecord
280
1
290
1
  0
XRECORD
  5
B4
330
AB
100
AcDbXrecord
280
1
1000
auto
  0
XRECORD
  5
B5
330
AB
100
AcDbXrecord
280
1
1000
auto
  0
XRECORD
  5
B6
330
AB
100
AcDbXrecord
280
1
1000
auto
  0
XRECORD
  5
B7
330
AB
100
AcDbXrecord
280
1
1000
auto
  0
XRECORD
  5
B8
330
AB
100
AcDbXrecord
280
1
1000
auto
  0
XRECORD
  5
B9
330
AB
100
AcDbXrecord
280
1
1000
auto
  0
XRECORD
  5
BA
330
AB
100
AcDbXrecord
280
1
1000
auto
  0
XRECORD
  5
BB
330
AB
100
AcDbXrecord
280
1
1000
auto
  0
XRECORD
  5
BC
330
AB
100
AcDbXrecord
280
1
290
0
  0
XRECORD
  5
BD
330
AB
100
AcDbXrecord
280
1
290
0
  0
XRECORD
  5
BE
330
AB
100
AcDbXrecord
280
1
290
0
  0
XRECORD
  5
BF
330
AB
100
AcDbXrecord
280
1
290
0
  0
XRECORD
  5
C0
330
AB
100
AcDbXrecord
280
1
 90
65537
  0
XRECORD
  5
C1
330
AB
100
AcDbXrecord
280
1
 90
65537
  0
XRECORD
  5
C2
330
AB
100
AcDbXrecord
280
1
 90
65537
  0
XRECORD
  5
C3
330
AB
100
AcDbXrecord
280
1
 90
65537
  0
XRECORD
  5
C4
330
AB
100
AcDbXrecord
280
1
1000
auto
  0
XRECORD
  5
C5
330
AB
100
AcDbXrecord
280
1
1000
auto
  0
XRECORD
  5
C6
330
AB
100
AcDbXrecord
280
1
1000
auto
  0
XRECORD
  5
C7
330
AB
100
AcDbXrecord
280
1
1000
auto
  0
XRECORD
  5
C8
330
AB
100
AcDbXrecord
280
1
1000
auto
  0
XRECORD
  5
C9
330
AB
100
AcDbXrecord
280
1
1000
auto
  0
XRECORD
  5
CA
330
AB
100
AcDbXrecord
280
1
1000
auto
  0
XRECORD
  5
CB
330
AB
100
AcDbXrecord
280
1
1000
auto
  0
XRECORD
  5
CC
330
AB
100
AcDbXrecord
280
1
 90
1
  0
XRECORD
  5
CD
330
AB
100
AcDbXrecord
280
1
 40
10.0
  0
XRECORD
  5
CE
330
AB
100
AcDbXrecord
280
1
 40
10.0
  0
XRECORD
  5
CF
330
AB
100
AcDbXrecord
280
1
 40
10.0
  0
XRECORD
  5
D0
330
AB
100
AcDbXrecord
280
1
 40
10.0
  0
XRECORD
  5
D1
330
AB
100
AcDbXrecord
280
1
290
0
  0
XRECORD
  5
D2
330
AB
100
AcDbXrecord
280
1
 90
1
  0
XRECORD
  5
D3
330
AB
100
AcDbXrecord
280
1
 40
0.0
  0
XRECORD
  5
D4
330
AB
100
AcDbXrecord
280
1
 40
0.0
  0
XRECORD
  5
D5
330
AB
100
AcDbXrecord
280
1
1000
Portrait
  0
XRECORD
  5
D6
330
AB
100
AcDbXrecord
280
1
 40
279.39999999999998
  0
XRECORD
  5
D7
330
AB
100
AcDbXrecord
280
1
 40
215.90000000000001
  0
XRECORD
  5
D8
330
AB
100
AcDbXrecord
280
1
1000
1:1
  0
XRECORD
  5
D9
330
AB
100
AcDbXrecord
280
1
290
1
  0
XRECORD
  5
DA
330
AB
100
AcDbXrecord
280
1
1000
3.22.0
  0
XRECORD
  5
DB
330
AB
100
AcDbXrecord
280
1
 90
4
  0
XRECORD
  5
DD
330
AB
100
AcDbXrecord
280
1
 40
279.71486829275045
  0
XRECORD
  5
DE
330
AB
100
AcDbXrecord
280
1
 40
479.00770687017405
  0
ENDSEC
  0
EOF
